<svg width="136" height="59" viewBox="0 0 136 59" fill="none" xmlns="http://www.w3.org/2000/svg">
<g id="Frame" clip-path="url(#clip0_97_14915)">
<g id="Group">
<path id="Vector" d="M105.621 50.8793H133.685C133.685 50.8793 136 51.1657 136 48.7071V45.0522L134.592 41.7296C134.592 41.7296 134.86 39.7358 136 38.8057V29.7023C136 29.7023 135.933 27.3763 134.927 26.0474L130.065 12.7578C130.065 12.7578 126.846 4.48468 123.024 4.48468H108.337C108.337 4.48468 105.621 4.68382 105.621 7.3753V50.8793Z" fill="black"/>
<path id="Vector_2" d="M135.238 43.2542H134.223C134.223 43.2542 133.452 43.1915 133.452 44.0556V45.019H136L135.238 43.2542Z" fill="white"/>
<path id="Vector_3" d="M119.671 22.6259L126.142 26.8787H130.602H132.58C132.58 26.8787 133.888 26.8787 133.586 25.8487L128.909 13.456H118.648L119.671 22.6259Z" fill="white"/>
<path id="Vector_4" d="M118.12 31.671V29.8517C118.12 29.8517 118.069 29.2042 118.774 29.2042H120.333L121.716 30.9984V31.671H118.12Z" fill="white"/>
<path id="Vector_5" d="M104.012 0H0V43.2532H104.012V0Z" fill="black"/>
<path id="Vector_6" d="M51.3691 43.2532L54.7219 52.428H104.012V43.2532H51.3691Z" fill="black"/>
<path id="Vector_7" d="M4.56006 43.2532L5.7002 50.1685C5.7002 50.1685 5.90165 52.428 8.65103 52.428H29.4397L31.9881 42.3279L4.56006 43.2532Z" fill="black"/>
<path id="Vector_8" d="M55.2248 40.866H28.0649V47.8406H55.2248V40.866Z" fill="black"/>
<path id="Vector_9" d="M48.0459 56.18C51.5815 52.6767 51.5815 46.9968 48.0459 43.4935C44.5104 39.9902 38.7781 39.9902 35.2425 43.4935C31.707 46.9968 31.707 52.6767 35.2425 56.18C38.7781 59.6833 44.5104 59.6833 48.0459 56.18Z" fill="black" stroke="white" stroke-width="2" stroke-miterlimit="10"/>
<path id="Vector_10" d="M125.048 56.1805C128.584 52.6772 128.584 46.9973 125.048 43.494C121.513 39.9907 115.781 39.9907 112.245 43.494C108.709 46.9973 108.709 52.6772 112.245 56.1805C115.781 59.6838 121.513 59.6838 125.048 56.1805Z" fill="black" stroke="white" stroke-width="2" stroke-miterlimit="10"/>
<path id="Vector_11" d="M107.231 37.0786H100.994V49.8368H107.231V37.0786Z" fill="black"/>
</g>
</g>
<defs>
<clipPath id="clip0_97_14915">
<rect width="136" height="59" fill="white"/>
</clipPath>
</defs>
</svg>
