<svg width="182" height="41" viewBox="0 0 182 41" fill="none" xmlns="http://www.w3.org/2000/svg">
<path d="M155.78 33.1462H147.063V22.5743C147.05 20.4097 146.501 19.0152 144.498 18.9346C142.199 18.9122 141.156 20.8843 141.243 23.1943V33.1462H132.514V11.8814H140.796V13.9922C142.445 12.3381 144.675 11.4942 147.153 11.4919C158.857 11.5166 155.225 25.4417 155.78 33.1462Z" fill="black"/>
<path d="M128.486 11.8815H119.756V33.1463H128.486V11.8815Z" fill="black"/>
<path d="M42.0825 11.4943V19.257C38.7831 18.6415 35.3695 19.6286 35.5911 23.7159V33.1463H26.8613V11.8815H35.1434V14.1714C36.7886 12.309 39.2643 11.4987 42.0825 11.4943Z" fill="black"/>
<path d="M76.2387 22.4892C75.9276 27.1697 81.9579 28.2307 83.5203 23.8838L90.2959 27.2145C88.7559 31.5212 84.5208 33.5111 79.8784 33.4887C70.7412 33.9364 64.0551 24.8575 68.9796 16.797C73.3557 9.75273 87.2718 9.36325 90.2959 17.8043L83.5203 21.135C81.978 16.8149 75.9388 17.8266 76.2387 22.4892Z" fill="black"/>
<path d="M108.583 21.0925L118.067 33.1463H107.495L102.327 26.599L100.952 28.0562V33.1463H92.2227V4.49475H100.952V18.0237L107.03 11.8815H117.371L108.583 21.0925Z" fill="black"/>
<path d="M0.899764 10.7488C-0.0806564 14.1623 -0.183623 18.0281 2.04359 20.9962C3.79626 23.3308 6.52487 24.6336 9.38107 24.9895C11.1875 25.2133 12.9782 24.9761 14.7644 24.6851C17.2826 24.2754 19.7561 23.6151 22.1803 22.8294C27.1764 21.2088 32.0203 19.1226 36.9291 17.2603C50.8273 11.9888 65.021 7.06436 79.7788 4.8752C86.7649 3.83882 93.8919 3.32399 100.952 3.40905C108.177 3.49635 115.266 4.42528 122.385 5.58254C130.306 6.86962 138.389 6.83828 146.324 8.05373C149.673 8.56633 153.167 9.24904 156.164 10.8965C157.879 11.8389 159.383 13.1528 160.811 14.4802C162.121 15.6979 163.374 17.0141 164.348 18.5205C165.362 20.0874 165.906 21.9363 166.085 23.4562C166.17 24.1792 166.235 24.9044 166.553 25.5715C166.915 26.328 167.578 26.7914 168.14 27.3913C168.252 27.5122 168.352 27.6465 168.469 27.7629C168.218 27.5122 168.48 27.7696 168.46 27.7696C168.617 27.7808 168.357 28.168 168.44 27.6733C168.493 27.351 168.628 26.6616 169.212 26.4265C169.422 26.3437 169.384 26.3751 169.474 26.4131C168.753 26.1176 168.63 26.1646 167.907 25.7864C167.56 25.605 167.22 25.4103 166.886 25.2044C166.718 25.0992 166.553 24.994 166.389 24.882C166.293 24.8171 165.883 24.5217 165.98 24.5955C165.716 24.3896 165.467 24.168 165.234 23.9262C165.017 23.7024 165.248 23.9464 165.14 23.8278C165.131 23.8166 165.044 23.6599 165.037 23.6599C165.098 23.6532 165.017 23.8949 165.062 23.7069C165.013 23.9083 164.939 24.6918 164.666 24.5575C164.679 24.5642 165.174 24.4388 164.921 24.4791C165.169 24.4388 165.434 24.4456 165.684 24.4456C167.305 24.4456 167.307 21.9273 165.684 21.9273C164.791 21.9273 163.697 21.9945 163.045 22.6974C162.425 23.3666 162.477 24.2844 162.92 25.0298C163.752 26.4221 165.503 27.4047 166.913 28.1009C168.021 28.6493 170.895 29.802 170.94 27.4875C170.956 26.6459 170.259 25.943 169.711 25.3902C169.492 25.1708 169.263 24.9581 169.033 24.7522C168.867 24.6067 168.843 24.5687 168.934 24.6739C168.865 24.5978 168.796 24.4679 168.762 24.3694C168.892 24.7477 168.74 24.2553 168.724 24.1725C168.699 24.0449 168.672 23.9173 168.648 23.7875C168.592 23.4875 168.675 23.9979 168.648 23.7987C168.637 23.7181 168.628 23.6353 168.619 23.5547C168.567 23.1159 168.52 22.6772 168.455 22.2407C168.314 21.2804 168.061 20.3627 167.688 19.4673C166.302 16.1321 163.607 13.4595 160.874 11.1897C158.04 8.83493 154.998 7.3643 151.419 6.48237C147.314 5.47062 143.058 5.06546 138.857 4.68717C134.172 4.26636 129.447 4.04028 124.782 3.42024C122.445 3.1091 119.647 2.57412 117.142 2.2115C108.392 0.942329 99.6043 0.608807 90.7806 1.20422C76.9539 2.13987 63.631 5.28259 50.5207 9.69672C46.0483 11.2009 41.6118 12.8126 37.1977 14.4779C32.1031 16.4007 27.0779 18.563 21.9072 20.2732C19.3554 21.117 16.7521 21.8244 14.0974 22.2586C12.3626 22.5429 10.5876 22.7421 8.85057 22.3661C6.03466 21.7572 3.63957 19.9531 2.94342 17.0611C2.49127 15.1875 2.80912 13.2423 3.33291 11.4203C3.77611 9.85788 1.34744 9.19308 0.899764 10.7488Z" fill="#325DD6"/>
<path d="M61.0903 14.0168C56.8865 10.5249 47.962 10.9995 43.1025 13.9788L45.8915 19.7472C47.9755 18.1847 52.318 17.3342 54.3907 18.8966C54.8138 19.1808 55.0712 19.783 55.2212 20.5575C52.4097 20.5418 48.5373 20.4903 46.5518 21.2984C38.8137 24.0292 42.4847 34.2386 50.1736 33.5357C52.8485 33.5268 54.8563 32.7299 55.9598 30.7959V33.1462H64.092C63.7002 28.3359 65.6544 16.9962 61.0903 14.0168ZM55.4047 26.8989C54.0326 29.3454 49.0074 28.0337 51.4629 25.182C52.1299 24.6381 54.0908 24.7142 55.4875 24.741C55.4607 25.52 55.4204 26.2654 55.4047 26.8989Z" fill="black"/>
<path d="M0 6.06165H25.0701V13.2245H17.2357V33.1463H8.05825V13.2245H0V6.06165Z" fill="black"/>
<path d="M126.964 5.34083L121.762 8.89541L122.538 4.44323L123.315 0L126.964 5.34083Z" fill="black"/>
<path d="M182 11.4897L173.286 33.0993C172.512 35.0355 171.614 36.5442 170.596 37.6298C169.575 38.7132 168.44 39.4742 167.187 39.9152C165.935 40.3517 164.561 40.5733 163.064 40.5733C161.902 40.5733 160.72 40.3987 159.52 40.0495C158.32 39.7003 157.358 39.2415 156.635 38.6751L159.54 32.6717C159.979 33.0075 160.474 33.2784 161.031 33.4865C161.586 33.6925 162.121 33.7954 162.638 33.7954C163.413 33.7954 164.006 33.6343 164.418 33.3119C164.561 33.2 164.693 33.0702 164.816 32.9202L155.898 11.4897H164.883L169.255 22.8474L173.712 11.4897H182Z" fill="black"/>
</svg>
