<svg width="814" height="300" viewBox="0 0 814 300" fill="none" xmlns="http://www.w3.org/2000/svg">
<g clip-path="url(#clip0_180_2897)">
<path d="M695.94 266.62H657V219.39C656.94 209.72 654.49 203.49 645.54 203.13C635.27 203.03 630.61 211.84 631 222.16V266.62H592V171.62H629V181.05C636.37 173.66 646.33 169.89 657.4 169.88C709.69 169.99 693.46 232.2 695.94 266.62Z" fill="black"/>
<path d="M574 171.62H535V266.62H574V171.62Z" fill="black"/>
<path d="M188 169.89V204.57C173.26 201.82 158.01 206.23 159 224.49V266.62H120V171.62H157V181.85C164.35 173.53 175.41 169.91 188 169.89Z" fill="black"/>
<path d="M340.59 219.01C339.2 239.92 366.14 244.66 373.12 225.24L403.39 240.12C396.51 259.36 377.59 268.25 356.85 268.15C316.03 270.15 286.16 229.59 308.16 193.58C327.71 162.11 389.88 160.37 403.39 198.08L373.12 212.96C366.23 193.66 339.25 198.18 340.59 219.01Z" fill="black"/>
<path d="M485.09 212.77L527.46 266.62H480.23L457.14 237.37L451 243.88V266.62H412V138.62H451V199.06L478.15 171.62H524.35L485.09 212.77Z" fill="black"/>
<path d="M4.02 166.56C-0.359998 181.81 -0.819998 199.08 9.13 212.34C16.96 222.77 29.15 228.59 41.91 230.18C49.98 231.18 57.98 230.12 65.96 228.82C77.21 226.99 88.26 224.04 99.09 220.53C121.41 213.29 143.05 203.97 164.98 195.65C227.07 172.1 290.48 150.1 356.41 140.32C387.62 135.69 419.46 133.39 451 133.77C483.28 134.16 514.95 138.31 546.75 143.48C582.14 149.23 618.25 149.09 653.7 154.52C668.66 156.81 684.27 159.86 697.66 167.22C705.32 171.43 712.04 177.3 718.42 183.23C724.27 188.67 729.87 194.55 734.22 201.28C738.75 208.28 741.18 216.54 741.98 223.33C742.36 226.56 742.65 229.8 744.07 232.78C745.69 236.16 748.65 238.23 751.16 240.91C751.66 241.45 752.11 242.05 752.63 242.57C751.51 241.45 752.68 242.6 752.59 242.6C753.29 242.65 752.13 244.38 752.5 242.17C752.74 240.73 753.34 237.65 755.95 236.6C756.89 236.23 756.72 236.37 757.12 236.54C753.9 235.22 753.35 235.43 750.12 233.74C748.57 232.93 747.05 232.06 745.56 231.14C744.81 230.67 744.07 230.2 743.34 229.7C742.91 229.41 741.08 228.09 741.51 228.42C740.33 227.5 739.22 226.51 738.18 225.43C737.21 224.43 738.24 225.52 737.76 224.99C737.72 224.94 737.33 224.24 737.3 224.24C737.57 224.21 737.21 225.29 737.41 224.45C737.19 225.35 736.86 228.85 735.64 228.25C735.7 228.28 737.91 227.72 736.78 227.9C737.89 227.72 739.07 227.75 740.19 227.75C747.43 227.75 747.44 216.5 740.19 216.5C736.2 216.5 731.31 216.8 728.4 219.94C725.63 222.93 725.86 227.03 727.84 230.36C731.56 236.58 739.38 240.97 745.68 244.08C750.63 246.53 763.47 251.68 763.67 241.34C763.74 237.58 760.63 234.44 758.18 231.97C757.2 230.99 756.18 230.04 755.15 229.12C754.41 228.47 754.3 228.3 754.71 228.77C754.4 228.43 754.09 227.85 753.94 227.41C754.52 229.1 753.84 226.9 753.77 226.53C753.66 225.96 753.54 225.39 753.43 224.81C753.18 223.47 753.55 225.75 753.43 224.86C753.38 224.5 753.34 224.13 753.3 223.77C753.07 221.81 752.86 219.85 752.57 217.9C751.94 213.61 750.81 209.51 749.14 205.51C742.95 190.61 730.91 178.67 718.7 168.53C706.04 158.01 692.45 151.44 676.46 147.5C658.12 142.98 639.11 141.17 620.34 139.48C599.41 137.6 578.3 136.59 557.46 133.82C547.02 132.43 534.52 130.04 523.33 128.42C484.24 122.75 444.98 121.26 405.56 123.92C343.79 128.1 284.27 142.14 225.7 161.86C205.72 168.58 185.9 175.78 166.18 183.22C143.42 191.81 120.97 201.47 97.87 209.11C86.47 212.88 74.84 216.04 62.98 217.98C55.23 219.25 47.3 220.14 39.54 218.46C26.96 215.74 16.26 207.68 13.15 194.76C11.13 186.39 12.55 177.7 14.89 169.56C16.87 162.58 6.02 159.61 4.02 166.56Z" fill="#325DD6"/>
<path d="M272.92 181.16C254.14 165.56 214.27 167.68 192.56 180.99L205.02 206.76C214.33 199.78 233.73 195.98 242.99 202.96C244.88 204.23 246.03 206.92 246.7 210.38C234.14 210.31 216.84 210.08 207.97 213.69C173.4 225.89 189.8 271.5 224.15 268.36C236.1 268.32 245.07 264.76 250 256.12V266.62H286.33C284.58 245.13 293.31 194.47 272.92 181.16ZM247.52 238.71C241.39 249.64 218.94 243.78 229.91 231.04C232.89 228.61 241.65 228.95 247.89 229.07C247.77 232.55 247.59 235.88 247.52 238.71Z" fill="black"/>
<path d="M0 145.62H112V177.62H77V266.62H36V177.62H0V145.62Z" fill="black"/>
<path d="M567.21 142.4L543.97 158.28L547.44 138.39L550.91 118.54L567.21 142.4Z" fill="black"/>
<path d="M813.08 169.87L774.15 266.41C770.69 275.06 766.68 281.8 762.13 286.65C757.57 291.49 752.5 294.89 746.9 296.86C741.31 298.81 735.17 299.8 728.48 299.8C723.29 299.8 718.01 299.02 712.65 297.46C707.29 295.9 702.99 293.85 699.76 291.32L712.74 264.5C714.7 266 716.91 267.21 719.4 268.14C721.88 269.06 724.27 269.52 726.58 269.52C730.04 269.52 732.69 268.8 734.53 267.36C735.17 266.86 735.76 266.28 736.31 265.61L696.47 169.87H736.61L756.14 220.61L776.05 169.87H813.08Z" fill="black"/>
</g>
<defs>
<clipPath id="clip0_180_2897">
<rect width="813.08" height="299.8" fill="white"/>
</clipPath>
</defs>
</svg>
