<?xml version="1.0" standalone="no"?>
<!DOCTYPE svg PUBLIC "-//W3C//DTD SVG 20010904//EN"
 "http://www.w3.org/TR/2001/REC-SVG-20010904/DTD/svg10.dtd">
<svg version="1.0" xmlns="http://www.w3.org/2000/svg"
 width="2838.000000pt" height="1581.000000pt" viewBox="0 0 2838.000000 1581.000000"
 preserveAspectRatio="xMidYMid meet">

<g transform="translate(0.000000,1581.000000) scale(0.100000,-0.100000)"
fill="#000000" stroke="none">
<path d="M19550 237 l0 -114 48 -1 c63 -1 82 17 82 78 0 59 -24 86 -70 77 -29
-6 -30 -6 -30 33 0 29 -4 40 -15 40 -12 0 -15 -19 -15 -113z m96 -3 c13 -19
15 -32 8 -51 -22 -62 -74 -50 -74 16 0 62 37 81 66 35z"/>
<path d="M20250 311 c0 -39 0 -40 -33 -34 -43 7 -72 -24 -72 -77 0 -57 25 -79
86 -78 l49 1 0 114 c0 94 -3 113 -15 113 -11 0 -15 -11 -15 -39z m-11 -65 c17
-20 10 -87 -11 -100 -13 -8 -22 -6 -37 8 -25 23 -27 63 -4 88 19 22 36 23 52
4z"/>
<path d="M20540 235 c0 -94 3 -115 15 -115 10 0 15 16 17 61 2 45 8 65 20 72
30 19 48 -8 48 -74 0 -46 3 -59 15 -59 11 0 15 12 15 53 0 76 -17 102 -63 101
-36 -1 -37 -1 -37 37 0 28 -4 39 -15 39 -12 0 -15 -19 -15 -115z"/>
<path d="M22770 311 c0 -39 0 -40 -33 -34 -43 7 -72 -24 -72 -77 0 -57 25 -79
86 -78 l49 1 0 114 c0 94 -3 113 -15 113 -11 0 -15 -11 -15 -39z m-11 -65 c17
-20 10 -87 -11 -100 -13 -8 -22 -6 -37 8 -25 23 -27 63 -4 88 19 22 36 23 52
4z"/>
<path d="M19070 230 c0 -91 3 -110 15 -110 10 0 15 10 15 33 0 18 6 42 14 52
12 17 16 15 52 -33 21 -29 44 -52 51 -52 20 0 16 9 -28 67 l-41 55 42 49 c57
68 24 66 -40 -3 l-49 -53 -1 53 c0 39 -4 52 -15 52 -12 0 -15 -19 -15 -110z"/>
<path d="M22010 231 c0 -91 3 -111 15 -111 11 0 15 18 17 83 l3 82 31 -80 c18
-46 37 -80 45 -80 8 0 26 34 44 80 l30 80 3 -83 c2 -64 6 -82 17 -82 12 0 15
20 15 111 0 106 -1 110 -21 107 -16 -2 -29 -23 -54 -88 l-33 -85 -17 39 c-9
21 -25 59 -34 85 -13 32 -25 47 -40 49 -20 3 -21 0 -21 -107z"/>
<path d="M23350 327 c-14 -7 -33 -29 -44 -51 -16 -32 -17 -44 -7 -75 14 -49
40 -71 90 -78 36 -5 44 -2 76 30 29 29 35 42 35 77 0 34 -6 48 -34 76 -37 37
-72 43 -116 21z m105 -32 c56 -55 18 -155 -59 -155 -42 0 -86 46 -86 90 0 16
11 42 26 59 33 40 83 43 119 6z"/>
<path d="M23378 293 c-41 -11 -40 -115 1 -126 25 -6 61 10 61 28 0 19 -7 19
-26 0 -24 -23 -44 -7 -44 35 0 43 26 63 46 36 14 -20 24 -20 24 -1 0 12 -31
38 -42 34 -2 -1 -11 -3 -20 -6z"/>
<path d="M23563 325 c-25 -17 -37 -55 -18 -55 8 0 16 9 20 19 8 27 43 37 62
18 22 -22 11 -54 -42 -114 -25 -28 -45 -56 -45 -62 0 -7 26 -11 70 -11 40 0
70 4 70 10 0 6 -22 10 -50 10 -52 0 -61 8 -33 31 28 24 73 91 73 111 0 25 -35
58 -63 58 -12 0 -32 -7 -44 -15z"/>
<path d="M23740 320 c-16 -16 -20 -33 -20 -90 0 -78 19 -110 65 -110 46 0 65
32 65 110 0 78 -19 110 -65 110 -14 0 -34 -9 -45 -20z m69 -14 c19 -23 10
-146 -11 -160 -31 -19 -53 15 -53 83 0 77 32 116 64 77z"/>
<path d="M23923 325 c-25 -17 -37 -55 -18 -55 8 0 16 9 20 19 8 27 43 37 62
18 22 -22 11 -54 -42 -114 -25 -28 -45 -56 -45 -62 0 -7 26 -11 70 -11 40 0
70 4 70 10 0 6 -22 10 -50 10 -52 0 -61 8 -33 31 28 24 73 91 73 111 0 25 -35
58 -63 58 -12 0 -32 -7 -44 -15z"/>
<path d="M24096 289 c-8 -57 2 -77 29 -61 24 13 53 4 60 -19 16 -51 -35 -89
-66 -50 -25 30 -42 28 -27 -4 20 -45 78 -47 111 -3 35 47 0 114 -55 106 -25
-4 -28 -2 -28 24 0 27 2 28 45 28 33 0 45 4 45 15 0 11 -13 15 -54 15 l-53 0
-7 -51z"/>
<path d="M24610 331 c0 -6 15 -11 33 -13 l32 -3 3 -97 c1 -54 7 -98 12 -98 5
0 11 44 12 98 l3 97 33 3 c64 6 30 22 -48 22 -44 0 -80 -4 -80 -9z"/>
<path d="M25820 230 c0 -91 3 -110 15 -110 11 0 15 12 15 45 0 43 1 45 28 45
23 0 32 -8 50 -45 12 -25 29 -45 37 -45 13 0 11 8 -8 48 -23 46 -23 48 -5 64
24 23 23 63 -2 88 -15 15 -33 20 -75 20 l-55 0 0 -110z m94 80 c53 -20 21 -86
-37 -78 -16 2 -23 11 -25 31 -7 55 10 67 62 47z"/>
<path d="M21000 300 c0 -20 -26 -26 -82 -21 -16 2 -18 -8 -18 -78 0 -65 3 -81
15 -81 12 0 15 13 15 59 0 64 1 65 43 75 l27 6 0 -58 c0 -60 11 -82 42 -82 22
0 24 16 3 24 -11 4 -15 21 -15 61 0 42 3 55 15 55 8 0 15 5 15 10 0 6 -7 10
-15 10 -8 0 -15 9 -15 20 0 11 -7 20 -15 20 -8 0 -15 -9 -15 -20z"/>
<path d="M21420 300 c0 -11 -7 -20 -15 -20 -8 0 -15 -4 -15 -10 0 -5 7 -10 15
-10 12 0 15 -13 15 -58 0 -60 11 -82 42 -82 22 0 24 16 3 24 -11 4 -15 21 -15
61 0 42 3 55 15 55 8 0 15 5 15 10 0 6 -7 10 -15 10 -8 0 -15 9 -15 20 0 11
-7 20 -15 20 -8 0 -15 -9 -15 -20z"/>
<path d="M23010 300 c0 -11 -7 -20 -15 -20 -8 0 -15 -4 -15 -10 0 -5 7 -10 15
-10 12 0 15 -13 15 -58 0 -60 11 -82 42 -82 22 0 24 16 3 24 -11 4 -15 21 -15
61 0 42 3 55 15 55 8 0 15 5 15 10 0 6 -7 10 -15 10 -8 0 -15 9 -15 20 0 11
-7 20 -15 20 -8 0 -15 -9 -15 -20z"/>
<path d="M26610 300 c0 -20 -26 -26 -82 -21 -16 2 -18 -8 -18 -78 0 -65 3 -81
15 -81 12 0 15 13 15 59 0 64 1 65 43 75 l27 6 0 -58 c0 -60 11 -82 42 -82 22
0 24 16 3 24 -11 4 -15 21 -15 61 0 42 3 55 15 55 8 0 15 5 15 10 0 6 -7 10
-15 10 -8 0 -15 9 -15 20 0 11 -7 20 -15 20 -8 0 -15 -9 -15 -20z"/>
<path d="M19269 261 c-18 -14 -24 -29 -24 -61 0 -32 6 -47 24 -61 28 -23 74
-25 91 -4 18 22 7 28 -24 14 -22 -10 -29 -9 -46 6 -31 28 -24 35 35 35 59 0
67 9 44 53 -23 42 -62 49 -100 18z m69 -13 c24 -24 13 -38 -28 -38 -43 0 -49
9 -24 34 19 19 36 20 52 4z"/>
<path d="M19411 204 c31 -81 31 -109 -2 -119 -24 -8 -25 -25 0 -25 27 0 37 16
76 124 30 83 33 97 18 94 -11 -2 -23 -22 -33 -58 l-16 -55 -21 55 c-11 30 -28
56 -36 58 -13 3 -10 -12 14 -74z"/>
<path d="M19749 261 c-18 -14 -24 -29 -24 -61 0 -32 6 -47 24 -61 52 -42 116
-9 116 61 0 47 -29 80 -70 80 -13 0 -33 -9 -46 -19z m75 -17 c30 -30 11 -104
-26 -104 -21 0 -48 33 -48 58 0 28 26 62 46 62 7 0 20 -7 28 -16z"/>
<path d="M19927 262 c-10 -10 -17 -22 -17 -25 0 -12 21 -7 37 8 19 20 47 15
51 -8 3 -13 -3 -17 -23 -17 -42 0 -65 -17 -65 -49 0 -39 16 -49 75 -48 l50 1
-5 68 c-4 46 -10 72 -20 78 -24 16 -66 11 -83 -8z m73 -82 c0 -28 -32 -43 -56
-26 -15 12 -16 16 -5 30 20 23 61 21 61 -4z"/>
<path d="M20060 199 c0 -62 3 -79 15 -79 10 0 15 16 17 63 3 56 5 62 26 65 40
6 26 31 -18 30 l-40 0 0 -79z"/>
<path d="M20406 264 c-30 -30 -14 -58 41 -73 18 -5 28 -14 28 -27 0 -25 -32
-30 -55 -9 -29 26 -49 14 -22 -13 26 -26 74 -29 96 -6 30 30 16 61 -36 74 -28
8 -38 16 -36 28 4 23 32 27 51 7 17 -16 37 -20 37 -7 0 17 -37 42 -63 42 -14
0 -33 -7 -41 -16z"/>
<path d="M20739 261 c-18 -14 -24 -29 -24 -61 0 -70 64 -103 116 -61 18 14 24
29 24 61 0 47 -29 80 -70 80 -13 0 -33 -9 -46 -19z m75 -17 c30 -30 11 -104
-26 -104 -21 0 -48 33 -48 58 0 28 26 62 46 62 7 0 20 -7 28 -16z"/>
<path d="M21099 261 c-18 -14 -24 -29 -24 -61 0 -71 69 -106 117 -58 27 27 7
39 -22 13 -24 -22 -58 -11 -66 21 -16 61 32 108 67 65 21 -25 41 -28 32 -3
-15 43 -65 55 -104 23z"/>
<path d="M21230 216 c0 -81 12 -95 80 -94 l50 1 0 79 c0 63 -3 78 -15 78 -11
0 -15 -13 -15 -54 0 -36 -5 -60 -16 -70 -18 -18 -17 -18 -38 -10 -12 5 -16 21
-16 70 0 50 -3 64 -15 64 -12 0 -15 -14 -15 -64z"/>
<path d="M21516 264 c-30 -30 -14 -58 41 -73 18 -5 28 -14 28 -27 0 -25 -32
-30 -55 -9 -29 26 -49 14 -22 -13 26 -26 74 -29 96 -6 30 30 16 61 -36 74 -28
8 -38 16 -36 28 4 23 32 27 51 7 17 -16 37 -20 37 -7 0 17 -37 42 -63 42 -14
0 -33 -7 -41 -16z"/>
<path d="M22297 262 c-10 -10 -17 -22 -17 -25 0 -12 21 -7 37 8 19 20 47 15
51 -8 3 -13 -3 -17 -23 -17 -42 0 -65 -17 -65 -49 0 -39 16 -49 75 -48 l50 1
-5 68 c-4 46 -10 72 -20 78 -24 16 -66 11 -83 -8z m73 -82 c0 -28 -32 -43 -56
-26 -15 12 -16 16 -5 30 20 23 61 21 61 -4z"/>
<path d="M22430 168 c0 -89 3 -108 15 -108 10 0 15 11 15 35 0 33 1 34 30 28
46 -9 70 18 70 77 0 61 -19 79 -82 78 l-48 -1 0 -109z m94 70 c21 -29 20 -51
-2 -78 -13 -17 -24 -21 -40 -16 -18 6 -22 15 -22 50 0 64 34 87 64 44z"/>
<path d="M22867 262 c-10 -10 -17 -22 -17 -25 0 -12 21 -7 37 8 19 20 47 15
51 -8 3 -13 -3 -17 -23 -17 -42 0 -65 -17 -65 -49 0 -39 16 -49 75 -48 l50 1
-5 68 c-4 46 -10 72 -20 78 -24 16 -66 11 -83 -8z m73 -82 c0 -28 -32 -43 -56
-26 -15 12 -16 16 -5 30 20 23 61 21 61 -4z"/>
<path d="M23107 262 c-21 -23 -21 -32 -3 -32 8 0 17 7 20 16 8 21 50 14 54 -8
3 -14 -3 -18 -23 -18 -42 0 -65 -17 -65 -49 0 -39 16 -49 75 -48 l50 1 -5 68
c-4 46 -10 72 -20 78 -24 16 -66 11 -83 -8z m73 -82 c0 -28 -32 -43 -56 -26
-15 12 -16 16 -5 30 20 23 61 21 61 -4z"/>
<path d="M24819 261 c-18 -14 -24 -29 -24 -61 0 -32 6 -47 24 -61 28 -23 74
-25 91 -4 18 22 7 28 -24 14 -22 -10 -29 -9 -46 6 -31 28 -24 35 35 35 59 0
67 9 44 53 -23 42 -62 49 -100 18z m69 -13 c24 -24 13 -38 -28 -38 -43 0 -49
9 -24 34 19 19 36 20 52 4z"/>
<path d="M24950 199 c0 -62 3 -79 15 -79 10 0 15 16 17 63 3 56 5 62 26 65 40
6 26 31 -18 30 l-40 0 0 -79z"/>
<path d="M25040 198 c0 -63 3 -78 15 -78 12 0 15 14 15 64 0 56 3 65 20 71 35
11 50 -12 50 -76 0 -46 3 -59 15 -59 12 0 15 14 15 64 0 58 2 65 22 72 31 10
48 -19 48 -83 0 -29 5 -53 10 -53 14 0 13 133 -2 148 -15 15 -60 16 -76 0 -8
-8 -15 -8 -24 0 -7 5 -34 10 -60 10 l-48 -1 0 -79z"/>
<path d="M25326 264 c-30 -30 -14 -58 41 -73 18 -5 28 -14 28 -27 0 -25 -32
-30 -55 -9 -29 26 -49 14 -22 -13 26 -26 74 -29 96 -6 30 30 16 61 -36 74 -28
8 -38 16 -36 28 4 23 32 27 51 7 17 -16 37 -20 37 -7 0 17 -37 42 -63 42 -14
0 -33 -7 -41 -16z"/>
<path d="M26019 261 c-18 -14 -24 -29 -24 -61 0 -32 6 -47 24 -61 28 -23 74
-25 91 -4 18 22 7 28 -24 14 -22 -10 -29 -9 -46 6 -31 28 -24 35 35 35 59 0
67 9 44 53 -23 42 -62 49 -100 18z m69 -13 c24 -24 13 -38 -28 -38 -43 0 -49
9 -24 34 19 19 36 20 52 4z"/>
<path d="M26150 168 c0 -89 3 -108 15 -108 10 0 15 11 15 35 0 33 1 34 30 28
46 -9 70 18 70 77 0 61 -19 79 -82 78 l-48 -1 0 -109z m94 70 c21 -29 20 -51
-2 -78 -13 -17 -24 -21 -40 -16 -18 6 -22 15 -22 50 0 64 34 87 64 44z"/>
<path d="M26349 261 c-18 -14 -24 -29 -24 -61 0 -101 125 -108 141 -8 11 68
-63 113 -117 69z m75 -17 c30 -30 11 -104 -26 -104 -21 0 -48 33 -48 58 0 28
26 62 46 62 7 0 20 -7 28 -16z"/>
<path d="M26767 262 c-21 -23 -21 -32 -3 -32 8 0 17 7 20 16 8 21 50 14 54 -8
3 -14 -3 -18 -23 -18 -42 0 -65 -17 -65 -49 0 -39 16 -49 75 -48 l50 1 -5 68
c-4 46 -10 72 -20 78 -24 16 -66 11 -83 -8z m73 -82 c0 -29 -38 -46 -58 -26
-13 12 -13 18 -2 30 19 24 60 21 60 -4z"/>
<path d="M26960 198 c0 -63 3 -78 15 -78 12 0 15 14 15 64 0 56 3 65 20 71 35
11 50 -12 50 -76 0 -46 3 -59 15 -59 12 0 15 14 15 64 0 58 2 65 22 72 31 10
48 -19 48 -83 0 -29 5 -53 10 -53 14 0 13 133 -2 148 -15 15 -60 16 -76 0 -8
-8 -15 -8 -24 0 -7 5 -34 10 -60 10 l-48 -1 0 -79z"/>
<path d="M27247 262 c-21 -23 -21 -32 -3 -32 8 0 17 7 20 16 8 21 50 14 54 -8
3 -14 -3 -18 -23 -18 -42 0 -65 -17 -65 -49 0 -39 16 -49 75 -48 l50 1 -5 68
c-4 46 -10 72 -20 78 -24 16 -66 11 -83 -8z m73 -82 c0 -28 -32 -43 -56 -26
-15 12 -16 16 -5 30 20 23 61 21 61 -4z"/>
<path d="M27380 168 c0 -89 3 -108 15 -108 10 0 15 11 15 35 0 33 1 34 30 28
46 -9 70 18 70 77 0 61 -19 79 -82 78 l-48 -1 0 -109z m94 70 c21 -29 20 -51
-2 -78 -13 -17 -24 -21 -40 -16 -18 6 -22 15 -22 50 0 64 34 87 64 44z"/>
<path d="M27639 261 c-18 -14 -24 -29 -24 -61 0 -32 6 -47 24 -61 28 -23 74
-25 91 -4 18 22 7 28 -24 14 -22 -10 -29 -9 -46 6 -31 28 -24 35 35 35 59 0
67 9 44 53 -23 42 -62 49 -100 18z m69 -13 c24 -24 13 -38 -28 -38 -43 0 -49
9 -24 34 19 19 36 20 52 4z"/>
<path d="M27770 199 c0 -62 3 -79 15 -79 10 0 15 16 17 63 3 56 5 62 26 65 40
6 26 31 -18 30 l-40 0 0 -79z"/>
<path d="M27860 199 c0 -62 3 -79 15 -79 10 0 15 16 17 63 3 56 5 62 26 65 40
6 26 31 -18 30 l-40 0 0 -79z"/>
<path d="M27969 261 c-18 -14 -24 -29 -24 -61 0 -70 64 -103 116 -61 18 14 24
29 24 61 0 47 -29 80 -70 80 -13 0 -33 -9 -46 -19z m75 -17 c30 -30 11 -104
-26 -104 -21 0 -48 33 -48 58 0 28 26 62 46 62 7 0 20 -7 28 -16z"/>
<path d="M28130 199 c0 -62 3 -79 15 -79 10 0 15 16 17 63 3 56 5 62 26 65 40
6 26 31 -18 30 l-40 0 0 -79z"/>
</g>
</svg>
