<svg width="245" height="55" viewBox="0 0 245 55" fill="none" xmlns="http://www.w3.org/2000/svg">
<path d="M209.097 45.031H197.397V30.8406C197.379 27.9353 196.643 26.0634 193.954 25.9553C190.868 25.9252 189.468 28.5722 189.585 31.6729V45.031H177.868V16.488H188.984V19.3213C191.199 17.1009 194.191 15.9682 197.517 15.9652C213.228 15.9983 208.352 34.6894 209.097 45.031Z" fill="black"/>
<path d="M172.46 16.488H160.742V45.031H172.46V16.488Z" fill="black"/>
<path d="M56.485 15.9682V26.3879C52.0563 25.5617 47.4744 26.8867 47.7718 32.3729V45.031H36.0542V16.488H47.1709V19.5617C49.3793 17.0619 52.7023 15.9742 56.485 15.9682Z" fill="black"/>
<path d="M102.331 30.7265C101.913 37.0089 110.008 38.4331 112.105 32.5983L121.199 37.069C119.132 42.8497 113.448 45.5207 107.216 45.4907C94.9519 46.0916 85.9773 33.9052 92.5873 23.086C98.4611 13.6307 117.14 13.1079 121.199 24.438L112.105 28.9087C110.035 23.11 101.928 24.468 102.331 30.7265Z" fill="black"/>
<path d="M145.746 28.8516L158.476 45.031H144.286L137.349 36.2428L135.504 38.1987V45.031H123.786V6.57309H135.504V24.7324L143.661 16.488H157.542L145.746 28.8516Z" fill="black"/>
<path d="M1.20789 14.9677C-0.108094 19.5496 -0.246302 24.7384 2.7432 28.7224C5.09574 31.8562 8.75826 33.6048 12.592 34.0825C15.0167 34.383 17.4203 34.0645 19.8179 33.6739C23.198 33.1241 26.518 32.2377 29.7719 31.1831C36.478 29.0079 42.9798 26.2077 49.5687 23.7079C68.2238 16.6322 87.2755 10.0223 107.084 7.08387C116.461 5.69277 126.028 5.00173 135.504 5.1159C145.203 5.23308 154.718 6.47995 164.272 8.03329C174.905 9.76089 185.755 9.71883 196.406 11.3503C200.901 12.0383 205.591 12.9547 209.614 15.166C211.915 16.4309 213.934 18.1946 215.851 19.9763C217.609 21.6107 219.291 23.3774 220.598 25.3994C221.959 27.5026 222.689 29.9843 222.93 32.0244C223.044 32.9949 223.131 33.9683 223.558 34.8637C224.044 35.8792 224.934 36.5012 225.688 37.3064C225.838 37.4686 225.973 37.6489 226.13 37.8051C225.793 37.4686 226.145 37.8141 226.118 37.8141C226.328 37.8292 225.979 38.3489 226.09 37.6849C226.163 37.2523 226.343 36.3269 227.127 36.0114C227.409 35.9003 227.358 35.9423 227.479 35.9934C226.511 35.5968 226.346 35.6599 225.375 35.1521C224.91 34.9088 224.453 34.6474 224.005 34.3709C223.78 34.2297 223.558 34.0885 223.338 33.9383C223.209 33.8512 222.659 33.4546 222.789 33.5537C222.434 33.2773 222.1 32.9799 221.788 32.6554C221.497 32.3549 221.806 32.6824 221.662 32.5232C221.65 32.5081 221.533 32.2978 221.524 32.2978C221.605 32.2888 221.497 32.6133 221.557 32.3609C221.491 32.6313 221.391 33.6829 221.025 33.5026C221.043 33.5117 221.707 33.3434 221.367 33.3975C221.701 33.3434 222.055 33.3524 222.392 33.3524C224.567 33.3524 224.57 29.9723 222.392 29.9723C221.193 29.9723 219.724 30.0625 218.85 31.0059C218.017 31.9042 218.086 33.1361 218.681 34.1366C219.799 36.0054 222.149 37.3244 224.041 38.2588C225.529 38.9949 229.386 40.5422 229.447 37.4356C229.468 36.3059 228.533 35.3624 227.797 34.6203C227.503 34.3259 227.196 34.0405 226.887 33.764C226.664 33.5687 226.631 33.5177 226.755 33.6589C226.661 33.5567 226.568 33.3825 226.523 33.2503C226.697 33.758 226.493 33.097 226.472 32.9859C226.439 32.8146 226.403 32.6433 226.37 32.4691C226.295 32.0665 226.406 32.7515 226.37 32.4841C226.355 32.3759 226.343 32.2648 226.331 32.1566C226.262 31.5677 226.199 30.9788 226.112 30.393C225.922 29.104 225.583 27.8722 225.081 26.6704C223.221 22.1936 219.604 18.6062 215.935 15.5596C212.131 12.3989 208.048 10.4249 203.244 9.24111C197.734 7.88307 192.022 7.33925 186.383 6.83148C180.094 6.26663 173.752 5.96318 167.49 5.13093C164.354 4.7133 160.598 3.99521 157.236 3.50848C145.491 1.80491 133.695 1.35724 121.852 2.15644C103.293 3.41233 85.4097 7.63069 67.8122 13.5556C61.8091 15.5746 55.8542 17.7379 49.9292 19.9733C43.0909 22.5542 36.3458 25.4565 29.4053 27.752C25.9802 28.8847 22.4859 29.8341 18.9226 30.417C16.5941 30.7986 14.2115 31.066 11.88 30.5612C8.10027 29.744 4.88542 27.3223 3.95102 23.4405C3.3441 20.9257 3.77075 18.3148 4.4738 15.8691C5.0687 13.7719 1.80879 12.8796 1.20789 14.9677Z" fill="#325DD6"/>
<path d="M81.9995 19.3543C76.357 14.6673 64.378 15.3042 57.8552 19.3033L61.5988 27.0459C64.396 24.9488 70.2248 23.807 73.007 25.9042C73.5749 26.2858 73.9204 27.094 74.1217 28.1336C70.348 28.1125 65.1502 28.0434 62.4852 29.1281C52.0985 32.7936 57.0259 46.4972 67.3465 45.5538C70.9369 45.5418 73.6319 44.4722 75.1132 41.8762V45.031H86.0286C85.5028 38.5743 88.1258 23.3534 81.9995 19.3543ZM74.368 36.6454C72.5263 39.9293 65.7811 38.1687 69.0771 34.3409C69.9724 33.6108 72.6044 33.713 74.4792 33.749C74.4432 34.7946 74.3891 35.7951 74.368 36.6454Z" fill="black"/>
<path d="M0 8.67625H33.6507V18.2907H23.1348V45.031H10.8163V18.2907H0V8.67625Z" fill="black"/>
<path d="M170.42 7.7088L163.437 12.48L164.48 6.50399L165.522 0.540009L170.42 7.7088Z" fill="black"/>
<path d="M244.292 15.9622L232.595 44.9679C231.555 47.5668 230.351 49.5919 228.984 51.0491C227.614 52.5032 226.09 53.5248 224.408 54.1167C222.728 54.7025 220.883 55 218.873 55C217.314 55 215.728 54.7656 214.117 54.2969C212.507 53.8282 211.215 53.2123 210.244 52.4522L214.144 44.394C214.733 44.8447 215.397 45.2083 216.145 45.4877C216.89 45.7641 217.608 45.9023 218.302 45.9023C219.342 45.9023 220.138 45.686 220.691 45.2533C220.883 45.1031 221.061 44.9288 221.226 44.7275L209.256 15.9622H221.316L227.184 31.2072L233.166 15.9622H244.292Z" fill="black"/>
</svg>
